<svg width="16" height="16" viewBox="0 0 16 16" fill="none" xmlns="http://www.w3.org/2000/svg">
<path d="M7.99999 3.20001C8.56578 3.20001 9.10841 3.42477 9.50848 3.82485C9.90856 4.22493 10.1333 4.76755 10.1333 5.33335C10.1333 5.72268 10.032 6.08535 9.84532 6.40001H11.2C11.7067 6.40001 12.1333 6.75735 12.24 7.23201C13.312 11.504 13.3333 11.616 13.3333 11.7333C13.3333 12.0162 13.2209 12.2876 13.0209 12.4876C12.8209 12.6876 12.5496 12.8 12.2667 12.8H3.73332C3.45043 12.8 3.17911 12.6876 2.97908 12.4876C2.77904 12.2876 2.66666 12.0162 2.66666 11.7333C2.66666 11.616 2.68799 11.504 3.75999 7.23201C3.86666 6.75735 4.29332 6.40001 4.79999 6.40001H6.15466C5.96401 6.07702 5.86448 5.7084 5.86666 5.33335C5.86666 4.76755 6.09142 4.22493 6.4915 3.82485C6.89157 3.42477 7.43419 3.20001 7.99999 3.20001ZM7.99999 4.26668C7.71709 4.26668 7.44578 4.37906 7.24574 4.5791C7.0457 4.77914 6.93332 5.05045 6.93332 5.33335C6.93332 5.61624 7.0457 5.88755 7.24574 6.08759C7.44578 6.28763 7.71709 6.40001 7.99999 6.40001C8.28289 6.40001 8.5542 6.28763 8.75424 6.08759C8.95428 5.88755 9.06666 5.61624 9.06666 5.33335C9.06666 5.05045 8.95428 4.77914 8.75424 4.5791C8.5542 4.37906 8.28289 4.26668 7.99999 4.26668Z" fill="#B7BDC9"/>
</svg>
