<svg width="36" height="36" viewBox="0 0 36 36" fill="none" xmlns="http://www.w3.org/2000/svg">
<g clip-path="url(#clip0_0_993)">
<mask id="mask0_0_993" style="mask-type:luminance" maskUnits="userSpaceOnUse" x="0" y="0" width="36" height="36">
<rect width="36" height="36" rx="4" fill="white"/>
</mask>
<g mask="url(#mask0_0_993)">
<path fill-rule="evenodd" clip-rule="evenodd" d="M11.8984 20.025C11.2969 20.025 10.7884 19.8245 10.373 19.4234C9.95768 19.0224 9.75 18.5354 9.75 17.9625C9.75 17.3896 9.95768 16.9026 10.373 16.5016C10.7884 16.1005 11.2969 15.9 11.8984 15.9C12.5 15.9 13.0085 16.1005 13.4238 16.5016C13.8392 16.9026 14.0469 17.3896 14.0469 17.9625C14.0469 18.5354 13.8392 19.0224 13.4238 19.4234C13.0085 19.8245 12.5 20.025 11.8984 20.025ZM18 20.025C17.3984 20.025 16.89 19.8245 16.4746 19.4234C16.0592 19.0224 15.8516 18.5354 15.8516 17.9625C15.8516 17.3896 16.0592 16.9026 16.4746 16.5016C16.89 16.1005 17.3984 15.9 18 15.9C18.6016 15.9 19.11 16.1005 19.5254 16.5016C19.9408 16.9026 20.1484 17.3896 20.1484 17.9625C20.1484 18.5354 19.9408 19.0224 19.5254 19.4234C19.11 19.8245 18.6016 20.025 18 20.025ZM24.1016 20.025C23.5 20.025 22.9915 19.8245 22.5762 19.4234C22.1608 19.0224 21.9531 18.5354 21.9531 17.9625C21.9531 17.3896 22.1608 16.9026 22.5762 16.5016C22.9915 16.1005 23.5 15.9 24.1016 15.9C24.7031 15.9 25.2116 16.1005 25.627 16.5016C26.0423 16.9026 26.25 17.3896 26.25 17.9625C26.25 18.5354 26.0423 19.0224 25.627 19.4234C25.2116 19.8245 24.7031 20.025 24.1016 20.025Z" fill="#B7BDC9"/>
</g>
</g>
<defs>
<clipPath id="clip0_0_993">
<rect width="36" height="36" fill="white"/>
</clipPath>
</defs>
</svg>
